<svg xmlns="http://www.w3.org/2000/svg" viewBox="0 0 22 22" style="background-color:#4E41E6;color:white" fill="none" class="text-white/70 w-[22px]"> <path d="M18.0001 16.8388V3.16124C18.0001 1.48423 16.0602 0.551875 14.7507 1.59949L8.75061 6.39951C8.27618 6.77906 8 7.35368 8 7.96125V12.0387C8 12.6463 8.27618 13.2209 8.75061 13.6005L14.7507 18.4005C16.0602 19.4481 18.0001 18.5158 18.0001 16.8388Z" stroke="currentColor" stroke-linejoin="round"></path> <path d="M20 10C20 8.41063 19.2275 6.98264 18 6V14C19.2275 13.0174 20 11.5894 20 10Z" stroke="currentColor"></path> <path d="M1 10C1 10.7947 1.38625 11.5087 2 12L2 8C1.38625 8.49132 1 9.20532 1 10Z" stroke="currentColor"></path> <rect x="2" y="6" width="6" height="8" rx="1" stroke="currentColor"></rect> <path d="M3 21V14H6L5 21H3Z" stroke="currentColor" stroke-linejoin="round"></path> </svg>