<svg xmlns="http://www.w3.org/2000/svg" viewBox="0 0 22 22" style="background-color:#3CBB9D;color:white" fill="none" class="text-white/70 w-[22px]"> <path d="M19 8.5V5C19 3.89543 18.1046 3 17 3H3C1.89543 3 1 3.89543 1 5V17C1 18.1046 1.89543 19 3 19H17C18.1046 19 19 18.1046 19 17V13.5" stroke="currentColor"></path> <path d="M12 8.5H20C20.2761 8.5 20.5 8.72386 20.5 9V13C20.5 13.2761 20.2761 13.5 20 13.5H12C10.6193 13.5 9.5 12.3807 9.5 11C9.5 9.61929 10.6193 8.5 12 8.5Z" stroke="currentColor"></path> <circle cx="12" cy="11" r="1" fill="currentColor"></circle> </svg>