<svg viewBox="0 0 33 23" style="background-color:#41ABE6;color:white" fill="none" xmlns="http://www.w3.org/2000/svg" class="text-white/70 w-[32px]"> <g id="Frame 130"> <path id="Rectangle 42 (Stroke)" d="M16.4377 11.5032C15.8747 10.3776 14.3731 9.98802 13.2475 10.5511L5.09553 14.6292C3.96997 15.1923 3.51399 16.5612 4.07706 17.6867C4.64012 18.8123 6.00903 19.2683 7.13459 18.7052L15.2866 14.6271C15.6031 14.4687 15.6825 14.3388 15.8854 14.0763M17.8688 14.8891C17.438 15.6507 17.5382 16.0487 16.3061 16.6651L8.15411 20.7432C5.903 21.8693 3.16519 20.9574 2.03905 18.7063C0.912915 16.4551 1.82489 13.7173 4.07601 12.5912L12.228 8.51309C14.4791 7.38695 17.2169 8.29893 18.3431 10.55C18.6975 11.2586 18.7343 12.0062 18.6566 12.7868" stroke="currentcolor" stroke-width="0.8"></path> <path id="Rectangle 42 (Stroke)_2" d="M16.4373 11.5031C17.0003 12.6287 18.5019 13.0183 19.6275 12.4553L27.7795 8.37715C28.905 7.81408 29.361 6.44518 28.7979 5.31962C28.2349 4.19406 26.866 3.73807 25.7404 4.30114L17.5884 8.37925C17.2719 8.53761 17.1929 8.66734 16.99 8.92983M14.9015 8.16959C15.3323 7.40799 15.7275 6.76214 16.5689 6.34125L24.7209 2.26314C26.972 1.137 29.7098 2.04898 30.8359 4.30009C31.9621 6.55121 31.0501 9.28901 28.799 10.4152L20.647 14.4933C18.3959 15.6194 15.6581 14.7074 14.5319 12.4563C14.1775 11.7477 14.1407 11.0001 14.2184 10.2195" stroke="currentcolor" stroke-width="0.8"></path> </g> </svg>