<svg width="97" height="94" viewBox="0 0 97 94" fill="none" xmlns="http://www.w3.org/2000/svg">
<rect x="0.48938" y="0.611816" width="96" height="93.1322" rx="27.4421" fill="#41ABE6"/>
<g opacity="0.7">
<path d="M48.3622 47.1852C46.9755 44.4131 43.2773 43.4535 40.5052 44.8402L20.4277 54.8841C17.6556 56.2709 16.5326 59.6423 17.9194 62.4145C19.3061 65.1866 22.6776 66.3096 25.4497 64.9229L45.5271 54.879C46.3068 54.4889 46.5022 54.1689 47.0018 53.5224M51.8867 55.5243C50.8259 57.4 51.0726 58.3803 48.0381 59.8983L27.9607 69.9422C22.4164 72.7158 15.6735 70.4697 12.9 64.9254C10.1265 59.3812 12.3725 52.6383 17.9168 49.8648L37.9942 39.8209C43.5384 37.0473 50.2813 39.2934 53.0549 44.8377C53.9279 46.5828 54.0184 48.424 53.8272 50.3466" stroke="white" stroke-width="1.97031"/>
<path d="M48.3602 47.1854C49.7469 49.9575 53.4451 50.9171 56.2172 49.5304L76.2947 39.4865C79.0668 38.0997 80.1898 34.7283 78.8031 31.9561C77.4163 29.184 74.0448 28.061 71.2727 29.4478L51.1953 39.4916C50.4156 39.8817 50.2212 40.2012 49.7216 40.8477M44.5779 38.9753C45.6387 37.0995 46.6122 35.5089 48.6843 34.4723L68.7617 24.4284C74.306 21.6548 81.0489 23.9009 83.8224 29.4452C86.596 34.9894 84.3499 41.7323 78.8056 44.5058L58.7282 54.5497C53.184 57.3233 46.4411 55.0772 43.6675 49.533C42.7945 47.7878 42.7041 45.9466 42.8952 44.0241" stroke="white" stroke-width="1.97031"/>
</g>
</svg>
